<svg width="40" height="40" viewBox="0 0 40 40" fill="none" xmlns="http://www.w3.org/2000/svg">
<g id="Frame 580679927">
<rect x="1" y="1" width="38" height="38" rx="19" fill="url(#paint0_linear_1_5555)"/>
<rect x="1" y="1" width="38" height="38" rx="19" fill="#585175"/>
<rect x="1" y="1" width="38" height="38" rx="19" fill="url(#paint1_linear_1_5555)" fill-opacity="0.3"/>
<path id="Vector" d="M28.9155 27.3077L22.0386 11.2363C21.6507 10.4053 21.0742 10 20.3142 10H19.7061C18.9461 10 18.3696 10.4053 17.9817 11.2363L14.9888 18.2384H12.7245C12.0483 18.2435 11.4979 18.7704 11.4927 19.4291V19.4443C11.4979 20.0979 12.0483 20.6299 12.7245 20.6349H13.9405L11.0839 27.3077C11.0314 27.4547 11 27.6067 11 27.7637C11 28.1387 11.1206 28.4325 11.3355 28.6605C11.5504 28.8885 11.8596 29 12.2475 29C12.5043 28.9949 12.7507 28.9189 12.9551 28.772C13.1752 28.6251 13.3272 28.4123 13.4478 28.1691L16.5927 20.6299H18.7732C19.4493 20.6248 19.9997 20.0979 20.0049 19.4392V19.4088C19.9997 18.7552 19.4493 18.2232 18.7732 18.2181H17.6095L20.0102 12.4371L26.5516 28.164C26.6721 28.4072 26.8241 28.62 27.0443 28.7669C27.2487 28.9139 27.5003 28.9899 27.7519 28.9949C28.1397 28.9949 28.4437 28.8835 28.6639 28.6555C28.884 28.4275 28.9993 28.1336 28.9993 27.7587C29.0046 27.6067 28.9784 27.4496 28.9155 27.3077Z" fill="white"/>
<rect x="1" y="1" width="38" height="38" rx="19" stroke="url(#paint2_linear_1_5555)" stroke-width="2"/>
</g>
<defs>
<linearGradient id="paint0_linear_1_5555" x1="20" y1="0" x2="20" y2="40" gradientUnits="userSpaceOnUse">
<stop stop-color="white" stop-opacity="0.24"/>
<stop offset="1" stop-color="white" stop-opacity="0.16"/>
</linearGradient>
<linearGradient id="paint1_linear_1_5555" x1="0" y1="0" x2="20" y2="40" gradientUnits="userSpaceOnUse">
<stop stop-color="white"/>
<stop offset="1" stop-color="white" stop-opacity="0"/>
</linearGradient>
<linearGradient id="paint2_linear_1_5555" x1="20" y1="0" x2="20" y2="40" gradientUnits="userSpaceOnUse">
<stop stop-color="white" stop-opacity="0.08"/>
<stop offset="1" stop-color="white" stop-opacity="0.04"/>
</linearGradient>
</defs>
</svg>
