<svg width="24" height="24" viewBox="0 0 24 24" fill="none" xmlns="http://www.w3.org/2000/svg">
<g id="Icon">
<path id="Icon_2" d="M12.155 15.1173C12.4364 15.1173 12.6728 15.0104 12.8922 14.7853L17.0568 10.5251C17.2256 10.3563 17.31 10.1537 17.31 9.90606C17.31 9.4052 16.9104 9 16.4152 9C16.1732 9 15.9425 9.1013 15.7567 9.28701L12.1606 13.0013L8.55888 9.28701C8.37317 9.1013 8.14243 9 7.89481 9C7.39957 9 7 9.4052 7 9.90606C7 10.1481 7.08442 10.3507 7.25325 10.5251L11.4178 14.7853C11.6485 15.016 11.8792 15.1173 12.155 15.1173Z" fill="white"/>
</g>
</svg>
